P2
100 150
255
255 255 255 255 255 255 255 255 255 255 255 255 255 255 255 254 253 252 251 250 249 248 247 246 245 244 243 242 241 240 239 238 237 236 235 234 233 232 231 230 229 228 227 226 225 224 223 222 221 220 219 218 217 216 215 214 213 212 211 210 209 208 207 206 206 205 204 204 203 202 202 202 202 202 202 202 202 202 202 203 204 204 205 206 206 207 208 209 210 211 212 213 214 215 216 217 218 219 220 221 
255 255 255 255 255 255 255 255 255 255 255 255 255 254 253 252 251 250 249 248 247 246 245 244 243 242 241 240 239 238 237 236 235 234 233 232 231 230 229 228 227 226 225 224 223 222 221 220 219 218 217 216 215 214 213 212 211 210 209 208 207 206 205 204 204 203 202 202 201 200 200 200 200 200 200 200 200 200 200 201 202 202 203 204 204 205 206 207 208 209 210 211 212 213 214 215 216 217 218 219 
255 255 255 255 255 255 255 255 255 255 255 254 253 252 251 250 249 248 247 246 245 244 243 242 241 240 239 238 237 236 235 234 233 232 231 230 229 228 227 226 225 224 223 222 221 220 219 218 217 216 215 214 213 212 211 210 209 208 207 206 205 204 203 202 202 201 200 200 199 198 198 198 198 198 198 198 198 198 198 199 200 200 201 202 202 203 204 205 206 207 208 209 210 211 212 213 214 215 216 217 
255 255 255 255 255 255 255 255 255 254 253 252 251 250 249 248 247 246 245 244 243 242 241 240 239 238 237 236 235 234 233 232 231 230 229 228 227 226 225 224 223 222 221 220 219 218 217 216 215 214 213 212 211 210 209 208 207 206 205 204 203 202 201 200 200 199 198 198 197 196 196 196 196 196 196 196 196 196 196 197 198 198 199 200 200 201 202 203 204 205 206 207 208 209 210 211 212 213 214 215 
255 255 255 255 255 255 255 254 253 252 251 250 249 248 247 246 245 244 243 242 241 240 239 238 237 236 235 234 233 232 231 230 229 228 227 226 225 224 223 222 221 220 219 218 217 216 215 214 213 212 211 210 209 208 207 206 205 204 203 202 201 200 199 198 198 197 196 196 195 194 194 194 194 194 194 194 194 194 194 195 196 196 197 198 198 199 200 201 202 203 204 205 206 207 208 209 210 211 212 213 
255 255 255 255 255 254 253 252 251 250 249 248 247 246 245 244 243 242 241 240 239 238 237 236 235 234 233 232 231 230 229 228 227 226 225 224 223 222 221 220 219 218 217 216 215 214 213 212 211 210 209 208 207 206 205 204 203 202 201 200 199 198 197 196 196 195 194 194 193 192 192 192 192 192 192 192 192 192 192 193 194 194 195 196 196 197 198 199 200 201 202 203 204 205 206 207 208 209 210 211 
255 255 255 254 253 252 251 250 249 248 247 246 245 244 243 242 241 240 239 238 237 236 235 234 233 232 231 230 229 228 227 226 225 224 223 222 221 220 219 218 217 216 215 214 213 212 211 210 209 208 207 206 205 204 203 202 201 200 199 198 197 196 195 194 194 193 192 192 191 190 190 190 190 190 190 190 190 190 190 191 192 192 193 194 194 195 196 197 198 199 200 201 202 203 204 205 206 207 208 209 
255 254 253 252 251 250 249 248 247 246 245 244 243 242 241 240 239 238 237 236 235 234 233 232 231 230 229 228 227 226 225 224 223 222 221 220 219 218 217 216 215 214 213 212 211 210 209 208 207 206 205 204 203 202 201 200 199 198 197 196 195 194 193 192 192 191 190 190 189 188 188 188 188 188 188 188 188 188 188 189 190 190 191 192 192 193 194 195 196 197 198 199 200 201 202 203 204 205 206 207 
253 252 251 250 249 248 247 246 245 244 243 242 241 240 239 238 237 236 235 234 233 232 231 230 229 228 227 226 225 224 223 222 221 220 219 218 217 216 215 214 213 212 211 210 209 208 207 206 205 204 203 202 201 200 199 198 197 196 195 194 193 192 191 190 190 189 188 188 187 186 186 186 186 186 186 186 186 186 186 187 188 188 189 190 190 191 192 193 194 195 196 197 198 199 200 201 202 203 204 205 
251 250 249 248 247 246 245 244 243 242 241 240 239 238 237 236 235 234 233 232 231 230 229 228 227 226 225 224 223 222 221 220 219 218 217 216 215 214 213 212 211 210 209 208 207 206 205 204 203 202 201 200 199 198 197 196 195 194 193 192 191 190 189 188 188 187 186 186 185 184 184 184 184 184 184 184 184 184 184 185 186 186 187 188 188 189 190 191 192 193 194 195 196 197 198 199 200 201 202 203 
249 248 247 246 245 244 243 242 241 240 239 238 237 236 235 234 233 232 231 230 229 228 227 226 225 224 223 222 221 220 219 218 217 216 215 214 213 212 211 210 209 208 207 206 205 204 203 202 201 200 199 198 197 196 195 194 193 192 191 190 189 188 187 186 186 185 184 184 183 182 182 182 182 182 182 182 182 182 182 183 184 184 185 186 186 187 188 189 190 191 192 193 194 195 196 197 198 199 200 201 
247 246 245 244 243 242 241 240 239 238 237 236 235 234 233 232 231 230 229 228 227 226 225 224 223 222 221 220 219 218 217 216 215 214 213 212 211 210 209 208 207 206 205 204 203 202 201 200 199 198 197 196 195 194 193 192 191 190 189 188 187 186 185 184 184 183 182 182 181 180 180 180 180 180 180 180 180 180 180 181 182 182 183 184 184 185 186 187 188 189 190 191 192 193 194 195 196 197 198 199 
245 244 243 242 241 240 239 238 237 236 235 234 233 232 231 230 229 228 227 226 225 224 223 222 221 220 219 218 217 216 215 214 213 212 211 210 209 208 207 206 205 204 203 202 201 200 199 198 197 196 195 194 193 192 191 190 189 188 187 186 185 184 183 182 182 181 180 180 179 178 178 178 178 178 178 178 178 178 178 179 180 180 181 182 182 183 184 185 186 187 188 189 190 191 192 193 194 195 196 197 
243 242 241 240 239 238 237 236 235 234 233 232 231 230 229 228 227 226 225 224 223 222 221 220 219 218 217 216 215 214 213 212 211 210 209 208 207 206 205 204 203 202 201 200 199 198 197 196 195 194 193 192 191 190 189 188 187 186 185 184 183 182 181 180 180 179 178 178 177 176 176 176 176 176 176 176 176 176 176 177 178 178 179 180 180 181 182 183 184 185 186 187 188 189 190 191 192 193 194 195 
241 240 239 238 237 236 235 234 233 232 231 230 229 228 227 226 225 224 223 222 221 220 219 218 217 216 215 214 213 212 211 210 209 208 207 206 205 204 203 202 201 200 199 198 197 196 195 194 193 192 191 190 189 188 187 186 185 184 183 182 181 180 179 178 178 177 176 176 175 174 174 174 174 174 174 174 174 174 174 175 176 176 177 178 178 179 180 181 182 183 184 185 186 187 188 189 190 191 192 193 
239 238 237 236 235 234 233 232 231 230 229 228 227 226 225 224 223 222 221 220 219 218 217 216 215 214 213 212 211 210 209 208 207 206 205 204 203 202 201 200 199 198 197 196 195 194 193 192 191 190 189 188 187 186 185 184 183 182 181 180 179 178 177 176 176 175 174 174 173 172 172 172 172 172 172 172 172 172 172 173 174 174 175 176 176 177 178 179 180 181 182 183 184 185 186 187 188 189 190 191 
237 236 235 234 233 232 231 230 229 228 227 226 225 224 223 222 221 220 219 218 217 216 215 214 213 212 211 210 209 208 207 206 205 204 203 202 201 200 199 198 197 196 195 194 193 192 191 190 189 188 187 186 185 184 183 182 181 180 179 178 177 176 175 174 174 173 172 172 171 170 170 170 170 170 170 170 170 170 170 171 172 172 173 174 174 175 176 177 178 179 180 181 182 183 184 185 186 187 188 189 
235 234 233 232 231 230 229 228 227 226 225 224 223 222 221 220 219 218 217 216 215 214 213 212 211 210 209 208 207 206 205 204 203 202 201 200 199 198 197 196 195 194 193 192 191 190 189 188 187 186 185 184 183 182 181 180 179 178 177 176 175 174 173 172 172 171 170 170 169 168 168 168 168 168 168 168 168 168 168 169 170 170 171 172 172 173 174 175 176 177 178 179 180 181 182 183 184 185 186 187 
233 232 231 230 229 228 227 226 225 224 223 222 221 220 219 218 217 216 215 214 213 212 211 210 209 208 207 206 205 204 203 202 201 200 199 198 197 196 195 194 193 192 191 190 189 188 187 186 185 184 183 182 181 180 179 178 177 176 175 174 173 172 171 170 170 169 168 168 167 166 166 166 166 166 166 166 166 166 166 167 168 168 169 170 170 171 172 173 174 175 176 177 178 179 180 181 182 183 184 185 
231 230 229 228 227 226 225 224 223 222 221 220 219 218 217 216 215 214 213 212 211 210 209 208 207 206 205 204 203 202 201 200 199 198 197 196 195 194 193 192 191 190 189 188 187 186 185 184 183 182 181 180 179 178 177 176 175 174 173 172 171 170 169 168 168 167 166 166 165 164 164 164 164 164 164 164 164 164 164 165 166 166 167 168 168 169 170 171 172 173 174 175 176 177 178 179 180 181 182 183 
229 228 227 226 225 224 223 222 221 220 219 218 217 216 215 214 213 212 211 210 209 208 207 206 205 204 203 202 201 200 199 198 197 196 195 194 193 192 191 190 189 188 187 186 185 184 183 182 181 180 179 178 177 176 175 174 173 172 171 170 169 168 167 166 166 165 164 164 163 162 162 162 162 162 162 162 162 162 162 163 164 164 165 166 166 167 168 169 170 171 172 173 174 175 176 177 178 179 180 181 
227 226 225 224 223 222 221 220 219 218 217 216 215 214 213 212 211 210 209 208 207 206 205 204 203 202 201 200 199 198 197 196 195 194 193 192 191 190 189 188 187 186 185 184 183 182 181 180 179 178 177 176 175 174 173 172 171 170 169 168 167 166 165 164 164 163 162 162 161 160 160 160 160 160 160 160 160 160 160 161 162 162 163 164 164 165 166 167 168 169 170 171 172 173 174 175 176 177 178 179 
225 224 223 222 221 220 219 218 217 216 215 214 213 212 211 210 209 208 207 206 205 204 203 202 201 200 199 198 197 196 195 194 193 192 191 190 189 188 187 186 185 184 183 182 181 180 179 178 177 176 175 174 173 172 171 170 169 168 167 166 165 164 163 162 162 161 160 160 159 158 158 158 158 158 158 158 158 158 158 159 160 160 161 162 162 163 164 165 166 167 168 169 170 171 172 173 174 175 176 177 
223 222 221 220 219 218 217 216 215 214 213 212 211 210 209 208 207 206 205 204 203 202 201 200 199 198 197 196 195 194 193 192 191 190 189 188 187 186 185 184 183 182 181 180 179 178 177 176 175 174 173 172 171 170 169 168 167 166 165 164 163 162 161 160 160 159 158 158 157 156 156 156 156 156 156 156 156 156 156 157 158 158 159 160 160 161 162 163 164 165 166 167 168 169 170 171 172 173 174 175 
221 220 219 218 217 216 215 214 213 212 211 210 209 208 207 206 205 204 203 202 201 200 199 198 197 196 195 194 193 192 191 190 189 188 187 186 185 184 183 182 181 180 179 178 177 176 175 174 173 172 171 170 169 168 167 166 165 164 163 162 161 160 159 158 158 157 156 156 155 154 154 154 154 154 154 154 154 154 154 155 156 156 157 158 158 159 160 161 162 163 164 165 166 167 168 169 170 171 172 173 
219 218 217 216 215 214 213 212 211 210 209 208 207 206 205 204 203 202 201 200 199 198 197 196 195 194 193 192 191 190 189 188 187 186 185 184 183 182 181 180 179 178 177 176 175 174 173 172 171 170 169 168 167 166 165 164 163 162 161 160 159 158 157 156 156 155 154 154 153 152 152 152 152 152 152 152 152 152 152 153 154 154 155 156 156 157 158 159 160 161 162 163 164 165 166 167 168 169 170 171 
217 216 215 214 213 212 211 210 209 208 207 206 205 204 203 202 201 200 199 198 197 196 195 194 193 192 191 190 189 188 187 186 185 184 183 182 181 180 179 178 177 176 175 174 173 172 171 170 169 168 167 166 165 164 163 162 161 160 159 158 157 156 155 154 154 153 152 152 151 150 150 150 150 150 150 150 150 150 150 151 152 152 153 154 154 155 156 157 158 159 160 161 162 163 164 165 166 167 168 169 
215 214 213 212 211 210 209 208 207 206 205 204 203 202 201 200 199 198 197 196 195 194 193 192 191 190 189 188 187 186 185 184 183 182 181 180 179 178 177 176 175 174 173 172 171 170 169 168 167 166 165 164 163 162 161 160 159 158 157 156 155 154 153 152 152 151 150 150 149 148 148 148 148 148 148 148 148 148 148 149 150 150 151 152 152 153 154 155 156 157 158 159 160 161 162 163 164 165 166 167 
213 212 211 210 209 208 207 206 205 204 203 202 201 200 199 198 197 196 195 194 193 192 191 190 189 188 187 186 185 184 183 182 181 180 179 178 177 176 175 174 173 172 171 170 169 168 167 166 165 164 163 162 161 160 159 158 157 156 155 154 153 152 151 150 150 149 148 148 147 146 146 146 146 146 146 146 146 146 146 147 148 148 149 150 150 151 152 153 154 155 156 157 158 159 160 161 162 163 164 165 
211 210 209 208 207 206 205 204 203 202 201 200 199 198 197 196 195 194 193 192 191 190 189 188 187 186 185 184 183 182 181 180 179 178 177 176 175 174 173 172 171 170 169 168 167 166 165 164 163 162 161 160 159 158 157 156 155 154 153 152 151 150 149 148 148 147 146 146 145 144 144 144 144 144 144 144 144 144 144 145 146 146 147 148 148 149 150 151 152 153 154 155 156 157 158 159 160 161 162 163 
209 208 207 206 205 204 203 202 201 200 199 198 197 196 195 194 193 192 191 190 189 188 187 186 185 184 183 182 181 180 179 178 177 176 175 174 173 172 171 170 169 168 167 166 165 164 163 162 161 160 159 158 157 156 155 154 153 152 151 150 149 148 147 146 146 145 144 144 143 142 142 142 142 142 142 142 142 142 142 143 144 144 145 146 146 147 148 149 150 151 152 153 154 155 156 157 158 159 160 161 
207 206 205 204 203 202 201 200 199 198 197 196 195 194 193 192 191 190 189 188 187 186 185 184 183 182 181 180 179 178 177 176 175 174 173 172 171 170 169 168 167 166 165 164 163 162 161 160 159 158 157 156 155 154 153 152 151 150 149 148 147 146 145 144 144 143 142 142 141 140 140 140 140 140 140 140 140 140 140 141 142 142 143 144 144 145 146 147 148 149 150 151 152 153 154 155 156 157 158 159 
205 204 203 202 201 200 199 198 197 196 195 194 193 192 191 190 189 188 187 186 185 184 183 182 181 180 179 178 177 176 175 174 173 172 171 170 169 168 167 166 165 164 163 162 161 160 159 158 157 156 155 154 153 152 151 150 149 148 147 146 145 144 143 142 142 141 140 140 139 138 138 138 138 138 138 138 138 138 138 139 140 140 141 142 142 143 144 145 146 147 148 149 150 151 152 153 154 155 156 157 
203 202 201 200 199 198 197 196 195 194 193 192 191 190 189 188 187 186 185 184 183 182 181 180 179 178 177 176 175 174 173 172 171 170 169 168 167 166 165 164 163 162 161 160 159 158 157 156 155 154 153 152 151 150 149 148 147 146 145 144 143 142 141 140 140 139 138 138 137 136 136 136 136 136 136 136 136 136 136 137 138 138 139 140 140 141 142 143 144 145 146 147 148 149 150 151 152 153 154 155 
201 200 199 198 197 196 195 194 193 192 191 190 189 188 187 186 185 184 183 182 181 180 179 178 177 176 175 174 173 172 171 170 169 168 167 166 165 164 163 162 161 160 159 158 157 156 155 154 153 152 151 150 149 148 147 146 145 144 143 142 141 140 139 138 138 137 136 136 135 134 134 134 134 134 134 134 134 134 134 135 136 136 137 138 138 139 140 141 142 143 144 145 146 147 148 149 150 151 152 153 
199 198 197 196 195 194 193 192 191 190 189 188 187 186 185 184 183 182 181 180 179 178 177 176 175 174 173 172 171 170 169 168 167 166 165 164 163 162 161 160 159 158 157 156 155 154 153 152 151 150 149 148 147 146 145 144 143 142 141 140 139 138 137 136 136 135 134 134 133 132 132 132 132 132 132 132 132 132 132 133 134 134 135 136 136 137 138 139 140 141 142 143 144 145 146 147 148 149 150 151 
197 196 195 194 193 192 191 190 189 188 187 186 185 184 183 182 181 180 179 178 177 176 175 174 173 172 171 170 169 168 167 166 165 164 163 162 161 160 159 158 157 156 155 154 153 152 151 150 149 148 147 146 145 144 143 142 141 140 139 138 137 136 135 134 134 133 132 132 131 130 130 130 130 130 130 130 130 130 130 131 132 132 133 134 134 135 136 137 138 139 140 141 142 143 144 145 146 147 148 149 
195 194 193 192 191 190 189 188 187 186 185 184 183 182 181 180 179 178 177 176 175 174 173 172 171 170 169 168 167 166 165 164 163 162 161 160 159 158 157 156 155 154 153 152 151 150 149 148 147 146 145 144 143 142 141 140 139 138 137 136 135 134 133 132 132 131 130 130 129 128 128 128 128 128 128 128 128 128 128 129 130 130 131 132 132 133 134 135 136 137 138 139 140 141 142 143 144 145 146 147 
193 192 191 190 189 188 187 186 185 184 183 182 181 180 179 178 177 176 175 174 173 172 171 170 169 168 167 166 165 164 163 162 161 160 159 158 157 156 155 154 153 152 151 150 149 148 147 146 145 144 143 142 141 140 139 138 137 136 135 134 133 132 131 130 130 129 128 128 127 126 126 126 126 126 126 126 126 126 126 127 128 128 129 130 130 131 132 133 134 135 136 137 138 139 140 141 142 143 144 145 
191 190 189 188 187 186 185 184 183 182 181 180 179 178 177 176 175 174 173 172 171 170 169 168 167 166 165 164 163 162 161 160 159 158 157 156 155 154 153 152 151 150 149 148 147 146 145 144 143 142 141 140 139 138 137 136 135 134 133 132 131 130 129 128 128 127 126 126 125 124 124 124 124 124 124 124 124 124 124 125 126 126 127 128 128 129 130 131 132 133 134 135 136 137 138 139 140 141 142 143 
189 188 187 186 185 184 183 182 181 180 179 178 177 176 175 174 173 172 171 170 169 168 167 166 165 164 163 162 161 160 159 158 157 156 155 154 153 152 151 150 149 148 147 146 145 144 143 142 141 140 139 138 137 136 135 134 133 132 131 130 129 128 127 126 126 125 124 124 123 122 122 122 122 122 122 122 122 122 122 123 124 124 125 126 126 127 128 129 130 131 132 133 134 135 136 137 138 139 140 141 
188 186 185 184 183 182 181 180 179 178 177 176 175 174 173 172 171 170 169 168 167 166 165 164 163 162 161 160 159 158 157 156 155 154 153 152 151 150 149 148 147 146 145 144 143 142 141 140 139 138 137 136 135 134 133 132 131 130 129 128 127 126 125 124 124 123 122 122 121 120 120 120 120 120 120 120 120 120 120 121 122 122 123 124 124 125 126 127 128 129 130 131 132 133 134 135 136 137 138 139 
186 185 183 182 181 180 179 178 177 176 175 174 173 172 171 170 169 168 167 166 165 164 163 162 161 160 159 158 157 156 155 154 153 152 151 150 149 148 147 146 145 144 143 142 141 140 139 138 137 136 135 134 133 132 131 130 129 128 127 126 125 124 123 122 122 121 120 120 119 118 118 118 118 118 118 118 118 118 118 119 120 120 121 122 122 123 124 125 126 127 128 129 130 131 132 133 134 135 136 137 
184 183 182 180 179 178 177 176 175 174 173 172 171 170 169 168 167 166 165 164 163 162 161 160 159 158 157 156 155 154 153 152 151 150 149 148 147 146 145 144 143 142 141 140 139 138 137 136 135 134 133 132 131 130 129 128 127 126 125 124 123 122 121 120 120 119 118 118 117 116 116 116 116 116 116 116 116 116 116 117 118 118 119 120 120 121 122 123 124 125 126 127 128 129 130 131 132 133 134 135 
182 181 180 179 177 176 175 174 173 172 171 170 169 168 167 166 165 164 163 162 161 160 159 158 157 156 155 154 153 152 151 150 149 148 147 146 145 144 143 142 141 140 139 138 137 136 135 134 133 132 131 130 129 128 127 126 125 124 123 122 121 120 119 118 118 117 116 116 115 114 114 114 114 114 114 114 114 114 114 115 116 116 117 118 118 119 120 121 122 123 124 125 126 127 128 129 130 131 132 133 
180 179 178 177 176 174 173 172 171 170 169 168 167 166 165 164 163 162 161 160 159 158 157 156 155 154 153 152 151 150 149 148 147 146 145 144 143 142 141 140 139 138 137 136 135 134 133 132 131 130 129 128 127 126 125 124 123 122 121 120 119 118 117 116 116 115 114 114 113 112 112 112 112 112 112 112 112 112 112 113 114 114 115 116 116 117 118 119 120 121 122 123 124 125 126 127 128 129 130 131 
179 177 176 175 174 173 171 170 169 168 167 166 165 164 163 162 161 160 159 158 157 156 155 154 153 152 151 150 149 148 147 146 145 144 143 142 141 140 139 138 137 136 135 134 133 132 131 130 129 128 127 126 125 124 123 122 121 120 119 118 117 116 115 114 114 113 112 112 111 110 110 110 110 110 110 110 110 110 110 111 112 112 113 114 114 115 116 117 118 119 120 121 122 123 124 125 126 127 128 129 
177 176 174 173 172 171 170 168 167 166 165 164 163 162 161 160 159 158 157 156 155 154 153 152 151 150 149 148 147 146 145 144 143 142 141 140 139 138 137 136 135 134 133 132 131 130 129 128 127 126 125 124 123 122 121 120 119 118 117 116 115 114 113 112 112 111 110 110 109 108 108 108 108 108 108 108 108 108 108 109 110 110 111 112 112 113 114 115 116 117 118 119 120 121 122 123 124 125 126 127 
176 174 173 171 170 169 168 167 165 164 163 162 161 160 159 158 157 156 155 154 153 152 151 150 149 148 147 146 145 144 143 142 141 140 139 138 137 136 135 134 133 132 131 130 129 128 127 126 125 124 123 122 121 120 119 118 117 116 115 114 113 112 111 110 110 109 108 108 107 106 106 106 106 106 106 106 106 106 106 107 108 108 109 110 110 111 112 113 114 115 116 117 118 119 120 121 122 123 124 125 
174 173 171 170 168 167 166 165 164 162 161 160 159 158 157 156 155 154 153 152 151 150 149 148 147 146 145 144 143 142 141 140 139 138 137 136 135 134 133 132 131 130 129 128 127 126 125 124 123 122 121 120 119 118 117 116 115 114 113 112 111 110 109 108 108 107 106 106 105 104 104 104 104 104 104 104 104 104 104 105 106 106 107 108 108 109 110 111 112 113 114 115 116 117 118 119 120 121 122 123 
173 171 170 168 167 165 164 163 162 161 159 158 157 156 155 154 153 152 151 150 149 148 147 146 145 144 143 142 141 140 139 138 137 136 135 134 133 132 131 130 129 128 127 126 125 124 123 122 121 120 119 118 117 116 115 114 113 112 111 110 109 108 107 106 106 105 104 104 103 102 102 102 102 102 102 102 102 102 102 103 104 104 105 106 106 107 108 109 110 111 112 113 114 115 116 117 118 119 120 121 
171 170 168 167 165 164 162 161 160 159 158 156 155 154 153 152 151 150 149 148 147 146 145 144 143 142 141 140 139 138 137 136 135 134 133 132 131 130 129 128 127 126 125 124 123 122 121 120 119 118 117 116 115 114 113 112 111 110 109 108 107 106 105 104 104 103 102 102 101 100 100 100 100 100 100 100 100 100 100 101 102 102 103 104 104 105 106 107 108 109 110 111 112 113 114 115 116 117 118 119 
170 168 167 165 164 162 161 159 158 157 156 155 153 152 151 150 149 148 147 146 145 144 143 142 141 140 139 138 137 136 135 134 133 132 131 130 129 128 127 126 125 124 123 122 121 120 119 118 117 116 115 114 113 112 111 110 109 108 107 106 105 104 103 102 102 101 100 100 99 98 98 98 98 98 98 98 98 98 98 99 100 100 101 102 102 103 104 105 106 107 108 109 110 111 112 113 114 115 116 117 
168 167 165 164 162 161 159 158 156 155 154 153 152 150 149 148 147 146 145 144 143 142 141 140 139 138 137 136 135 134 133 132 131 130 129 128 127 126 125 124 123 122 121 120 119 118 117 116 115 114 113 112 111 110 109 108 107 106 105 104 103 102 101 100 100 99 98 98 97 96 96 96 96 96 96 96 96 96 96 97 98 98 99 100 100 101 102 103 104 105 106 107 108 109 110 111 112 113 114 115 
167 165 164 162 161 159 158 156 155 153 152 151 150 149 147 146 145 144 143 142 141 140 139 138 137 136 135 134 133 132 131 130 129 128 127 126 125 124 123 122 121 120 119 118 117 116 115 114 113 112 111 110 109 108 107 106 105 104 103 102 101 100 99 98 98 97 96 96 95 94 94 94 94 94 94 94 94 94 94 95 96 96 97 98 98 99 100 101 102 103 104 105 106 107 108 109 110 111 112 113 
165 164 162 161 159 158 156 155 153 152 150 149 148 147 146 144 143 142 141 140 139 138 137 136 135 134 133 132 131 130 129 128 127 126 125 124 123 122 121 120 119 118 117 116 115 114 113 112 111 110 109 108 107 106 105 104 103 102 101 100 99 98 97 96 96 95 94 94 93 92 92 92 92 92 92 92 92 92 92 93 94 94 95 96 96 97 98 99 100 101 102 103 104 105 106 107 108 109 110 111 
164 162 161 159 158 156 155 153 152 150 149 147 146 145 144 143 141 140 139 138 137 136 135 134 133 132 131 130 129 128 127 126 125 124 123 122 121 120 119 118 117 116 115 114 113 112 111 110 109 108 107 106 105 104 103 102 101 100 99 98 97 96 95 94 94 93 92 92 91 90 90 90 90 90 90 90 90 90 90 91 92 92 93 94 94 95 96 97 98 99 100 101 102 103 104 105 106 107 108 109 
162 161 159 158 156 155 153 152 150 149 147 146 144 143 142 141 140 138 137 136 135 134 133 132 131 130 129 128 127 126 125 124 123 122 121 120 119 118 117 116 115 114 113 112 111 110 109 108 107 106 105 104 103 102 101 100 99 98 97 96 95 94 93 92 92 91 90 90 89 88 88 88 88 88 88 88 88 88 88 89 90 90 91 92 92 93 94 95 96 97 98 99 100 101 102 103 104 105 106 107 
161 159 158 156 155 153 152 150 149 147 146 144 143 141 140 139 138 137 135 134 133 132 131 130 129 128 127 126 125 124 123 122 121 120 119 118 117 116 115 114 113 112 111 110 109 108 107 106 105 104 103 102 101 100 99 98 97 96 95 94 93 92 91 90 90 89 88 88 87 86 86 86 86 86 86 86 86 86 86 87 88 88 89 90 90 91 92 93 94 95 96 97 98 99 100 101 102 103 104 105 
160 158 156 155 153 152 150 149 147 146 144 143 141 140 138 137 136 135 134 132 131 130 129 128 127 126 125 124 123 122 121 120 119 118 117 116 115 114 113 112 111 110 109 108 107 106 105 104 103 102 101 100 99 98 97 96 95 94 93 92 91 90 89 88 88 87 86 86 85 84 84 84 84 84 84 84 84 84 84 85 86 86 87 88 88 89 90 91 92 93 94 95 96 97 98 99 100 101 102 103 
159 157 155 153 152 150 149 147 146 144 143 141 140 138 137 135 134 133 132 131 129 128 127 126 125 124 123 122 121 120 119 118 117 116 115 114 113 112 111 110 109 108 107 106 105 104 103 102 101 100 99 98 97 96 95 94 93 92 91 90 89 88 87 86 86 85 84 84 83 82 82 82 82 82 82 82 82 82 82 83 84 84 85 86 86 87 88 89 90 91 92 93 94 95 96 97 98 99 100 101 
158 156 154 152 150 149 147 146 144 143 141 140 138 137 135 134 132 131 130 129 128 126 125 124 123 122 121 120 119 118 117 116 115 114 113 112 111 110 109 108 107 106 105 104 103 102 101 100 99 98 97 96 95 94 93 92 91 90 89 88 87 86 85 84 84 83 82 82 81 80 80 80 80 80 80 80 80 80 80 81 82 82 83 84 84 85 86 87 88 89 90 91 92 93 94 95 96 97 98 99 
156 155 153 151 149 147 146 144 143 141 140 138 137 135 134 132 131 129 128 127 126 125 123 122 121 120 119 118 117 116 115 114 113 112 111 110 109 108 107 106 105 104 103 102 101 100 99 98 97 96 95 94 93 92 91 90 89 88 87 86 85 84 83 82 82 81 80 80 79 78 78 78 78 78 78 78 78 78 78 79 80 80 81 82 82 83 84 85 86 87 88 89 90 91 92 93 94 95 96 97 
155 153 152 150 148 146 144 143 141 140 138 137 135 134 132 131 129 128 126 125 124 123 122 120 119 118 117 116 115 114 113 112 111 110 109 108 107 106 105 104 103 102 101 100 99 98 97 96 95 94 93 92 91 90 89 88 87 86 85 84 83 82 81 80 80 79 78 78 77 76 76 76 76 76 76 76 76 76 76 77 78 78 79 80 80 81 82 83 84 85 86 87 88 89 90 91 92 93 94 95 
154 152 150 149 147 145 143 141 140 138 137 135 134 132 131 129 128 126 125 123 122 121 120 119 117 116 115 114 113 112 111 110 109 108 107 106 105 104 103 102 101 100 99 98 97 96 95 94 93 92 91 90 89 88 87 86 85 84 83 82 81 80 79 78 78 77 76 76 75 74 74 74 74 74 74 74 74 74 74 75 76 76 77 78 78 79 80 81 82 83 84 85 86 87 88 89 90 91 92 93 
153 151 149 147 146 144 142 140 138 137 135 134 132 131 129 128 126 125 123 122 120 119 118 117 116 114 113 112 111 110 109 108 107 106 105 104 103 102 101 100 99 98 97 96 95 94 93 92 91 90 89 88 87 86 85 84 83 82 81 80 79 78 77 76 76 75 74 74 73 72 72 72 72 72 72 72 72 72 72 73 74 74 75 76 76 77 78 79 80 81 82 83 84 85 86 87 88 89 90 91 
152 150 148 146 144 143 141 139 137 135 134 132 131 129 128 126 125 123 122 120 119 117 116 115 114 113 111 110 109 108 107 106 105 104 103 102 101 100 99 98 97 96 95 94 93 92 91 90 89 88 87 86 85 84 83 82 81 80 79 78 77 76 75 74 74 73 72 72 71 70 70 70 70 70 70 70 70 70 70 71 72 72 73 74 74 75 76 77 78 79 80 81 82 83 84 85 86 87 88 89 
151 149 147 145 143 141 140 138 136 134 132 131 129 128 126 125 123 122 120 119 117 116 114 113 112 111 110 108 107 106 105 104 103 102 101 100 99 98 97 96 95 94 93 92 91 90 89 88 87 86 85 84 83 82 81 80 79 78 77 76 75 74 73 72 72 71 70 70 69 68 68 68 68 68 68 68 68 68 68 69 70 70 71 72 72 73 74 75 76 77 78 79 80 81 82 83 84 85 86 87 
150 148 146 144 142 140 138 137 135 133 131 129 128 126 125 123 122 120 119 117 116 114 113 111 110 109 108 107 105 104 103 102 101 100 99 98 97 96 95 94 93 92 91 90 89 88 87 86 85 84 83 82 81 80 79 78 77 76 75 74 73 72 71 70 70 69 68 68 67 66 66 66 66 66 66 66 66 66 66 67 68 68 69 70 70 71 72 73 74 75 76 77 78 79 80 81 82 83 84 85 
149 147 145 143 141 139 137 135 134 132 130 128 126 125 123 122 120 119 117 116 114 113 111 110 108 107 106 105 104 102 101 100 99 98 97 96 95 94 93 92 91 90 89 88 87 86 85 84 83 82 81 80 79 78 77 76 75 74 73 72 71 70 69 68 68 67 66 66 65 64 64 64 64 64 64 64 64 64 64 65 66 66 67 68 68 69 70 71 72 73 74 75 76 77 78 79 80 81 82 83 
148 146 144 142 140 138 136 134 132 131 129 127 125 123 122 120 119 117 116 114 113 111 110 108 107 105 104 103 102 101 99 98 97 96 95 94 93 92 91 90 89 88 87 86 85 84 83 82 81 80 79 78 77 76 75 74 73 72 71 70 69 68 67 66 66 65 64 64 63 62 62 62 62 62 62 62 62 62 62 63 64 64 65 66 66 67 68 69 70 71 72 73 74 75 76 77 78 79 80 81 
147 145 143 141 139 137 135 133 131 129 128 126 124 122 120 119 117 116 114 113 111 110 108 107 105 104 102 101 100 99 98 96 95 94 93 92 91 90 89 88 87 86 85 84 83 82 81 80 79 78 77 76 75 74 73 72 71 70 69 68 67 66 65 64 64 63 62 62 61 60 60 60 60 60 60 60 60 60 60 61 62 62 63 64 64 65 66 67 68 69 70 71 72 73 74 75 76 77 78 79 
146 144 142 140 138 136 134 132 130 128 126 125 123 121 119 117 116 114 113 111 110 108 107 105 104 102 101 99 98 97 96 95 93 92 91 90 89 88 87 86 85 84 83 82 81 80 79 78 77 76 75 74 73 72 71 70 69 68 67 66 65 64 63 62 62 61 60 60 59 58 58 58 58 58 58 58 58 58 58 59 60 60 61 62 62 63 64 65 66 67 68 69 70 71 72 73 74 75 76 77 
145 143 141 139 137 135 133 131 129 127 125 123 122 120 118 116 114 113 111 110 108 107 105 104 102 101 99 98 96 95 94 93 92 90 89 88 87 86 85 84 83 82 81 80 79 78 77 76 75 74 73 72 71 70 69 68 67 66 65 64 63 62 61 60 60 59 58 58 57 56 56 56 56 56 56 56 56 56 56 57 58 58 59 60 60 61 62 63 64 65 66 67 68 69 70 71 72 73 74 75 
144 142 140 138 136 134 132 130 128 126 124 122 120 119 117 115 113 111 110 108 107 105 104 102 101 99 98 96 95 93 92 91 90 89 87 86 85 84 83 82 81 80 79 78 77 76 75 74 73 72 71 70 69 68 67 66 65 64 63 62 61 60 59 58 58 57 56 56 55 54 54 54 54 54 54 54 54 54 54 55 56 56 57 58 58 59 60 61 62 63 64 65 66 67 68 69 70 71 72 73 
143 141 139 137 135 133 131 129 127 125 123 121 119 117 116 114 112 110 108 107 105 104 102 101 99 98 96 95 93 92 90 89 88 87 86 84 83 82 81 80 79 78 77 76 75 74 73 72 71 70 69 68 67 66 65 64 63 62 61 60 59 58 57 56 56 55 54 54 53 52 52 52 52 52 52 52 52 52 52 53 54 54 55 56 56 57 58 59 60 61 62 63 64 65 66 67 68 69 70 71 
142 140 138 136 134 132 130 128 126 124 122 120 118 116 114 113 111 109 107 105 104 102 101 99 98 96 95 93 92 90 89 87 86 85 84 83 81 80 79 78 77 76 75 74 73 72 71 70 69 68 67 66 65 64 63 62 61 60 59 58 57 56 55 54 54 53 52 52 51 50 50 50 50 50 50 50 50 50 50 51 52 52 53 54 54 55 56 57 58 59 60 61 62 63 64 65 66 67 68 69 
141 139 137 135 133 131 129 127 125 123 121 119 117 115 113 111 110 108 106 104 102 101 99 98 96 95 93 92 90 89 87 86 84 83 82 81 80 78 77 76 75 74 73 72 71 70 69 68 67 66 65 64 63 62 61 60 59 58 57 56 55 54 53 52 52 51 50 50 49 48 48 48 48 48 48 48 48 48 48 49 50 50 51 52 52 53 54 55 56 57 58 59 60 61 62 63 64 65 66 67 
140 138 136 134 132 130 128 126 124 122 120 118 116 114 112 110 108 107 105 103 101 99 98 96 95 93 92 90 89 87 86 84 83 81 80 79 78 77 75 74 73 72 71 70 69 68 67 66 65 64 63 62 61 60 59 58 57 56 55 54 53 52 51 50 50 49 48 48 47 46 46 46 46 46 46 46 46 46 46 47 48 48 49 50 50 51 52 53 54 55 56 57 58 59 60 61 62 63 64 65 
139 137 135 133 131 129 127 125 123 121 119 117 115 113 111 109 107 105 104 102 100 98 96 95 93 92 90 89 87 86 84 83 81 80 78 77 76 75 74 72 71 70 69 68 67 66 65 64 63 62 61 60 59 58 57 56 55 54 53 52 51 50 49 48 48 47 46 46 45 44 44 44 44 44 44 44 44 44 44 45 46 46 47 48 48 49 50 51 52 53 54 55 56 57 58 59 60 61 62 63 
138 136 134 132 130 128 126 124 122 120 118 116 114 112 110 108 106 104 102 101 99 97 95 93 92 90 89 87 86 84 83 81 80 78 77 75 74 73 72 71 69 68 67 66 65 64 63 62 61 60 59 58 57 56 55 54 53 52 51 50 49 48 47 46 46 45 44 44 43 42 42 42 42 42 42 42 42 42 42 43 44 44 45 46 46 47 48 49 50 51 52 53 54 55 56 57 58 59 60 61 
137 135 133 131 129 127 125 123 121 119 117 115 113 111 109 107 105 103 101 99 98 96 94 92 90 89 87 86 84 83 81 80 78 77 75 74 72 71 70 69 68 66 65 64 63 62 61 60 59 58 57 56 55 54 53 52 51 50 49 48 47 46 45 44 44 43 42 42 41 40 40 40 40 40 40 40 40 40 40 41 42 42 43 44 44 45 46 47 48 49 50 51 52 53 54 55 56 57 58 59 
136 134 132 130 128 126 124 122 120 118 116 114 112 110 108 106 104 102 100 98 96 95 93 91 89 87 86 84 83 81 80 78 77 75 74 72 71 69 68 67 66 65 63 62 61 60 59 58 57 56 55 54 53 52 51 50 49 48 47 46 45 44 43 42 42 41 40 40 39 38 38 38 38 38 38 38 38 38 38 39 40 40 41 42 42 43 44 45 46 47 48 49 50 51 52 53 54 55 56 57 
135 133 131 129 127 125 123 121 119 117 115 113 111 109 107 105 103 101 99 97 95 93 92 90 88 86 84 83 81 80 78 77 75 74 72 71 69 68 66 65 64 63 62 60 59 58 57 56 55 54 53 52 51 50 49 48 47 46 45 44 43 42 41 40 40 39 38 38 37 36 36 36 36 36 36 36 36 36 36 37 38 38 39 40 40 41 42 43 44 45 46 47 48 49 50 51 52 53 54 55 
134 132 130 128 126 124 122 120 118 116 114 112 110 108 106 104 102 100 98 96 94 92 90 89 87 85 83 81 80 78 77 75 74 72 71 69 68 66 65 63 62 61 60 59 57 56 55 54 53 52 51 50 49 48 47 46 45 44 43 42 41 40 39 38 38 37 36 36 35 34 34 34 34 34 34 34 34 34 34 35 36 36 37 38 38 39 40 41 42 43 44 45 46 47 48 49 50 51 52 53 
133 131 129 127 125 123 121 119 117 115 113 111 109 107 105 103 101 99 97 95 93 91 89 87 86 84 82 80 78 77 75 74 72 71 69 68 66 65 63 62 60 59 58 57 56 54 53 52 51 50 49 48 47 46 45 44 43 42 41 40 39 38 37 36 36 35 34 34 33 32 32 32 32 32 32 32 32 32 32 33 34 34 35 36 36 37 38 39 40 41 42 43 44 45 46 47 48 49 50 51 
132 130 128 126 124 122 120 118 116 114 112 110 108 106 104 102 100 98 96 94 92 90 88 86 84 83 81 79 77 75 74 72 71 69 68 66 65 63 62 60 59 57 56 55 54 53 51 50 49 48 47 46 45 44 43 42 41 40 39 38 37 36 35 34 34 33 32 32 31 30 30 30 30 30 30 30 30 30 30 31 32 32 33 34 34 35 36 37 38 39 40 41 42 43 44 45 46 47 48 49 
131 129 127 125 123 121 119 117 115 113 111 109 107 105 103 101 99 97 95 93 91 89 87 85 83 81 80 78 76 74 72 71 69 68 66 65 63 62 60 59 57 56 54 53 52 51 50 48 47 46 45 44 43 42 41 40 39 38 37 36 35 34 33 32 32 31 30 30 29 28 28 28 28 28 28 28 28 28 28 29 30 30 31 32 32 33 34 35 36 37 38 39 40 41 42 43 44 45 46 47 
130 128 126 124 122 120 118 116 114 112 110 108 106 104 102 100 98 96 94 92 90 88 86 84 82 80 78 77 75 73 71 69 68 66 65 63 62 60 59 57 56 54 53 51 50 49 48 47 45 44 43 42 41 40 39 38 37 36 35 34 33 32 31 30 30 29 28 28 27 26 26 26 26 26 26 26 26 26 26 27 28 28 29 30 30 31 32 33 34 35 36 37 38 39 40 41 42 43 44 45 
129 127 125 123 121 119 117 115 113 111 109 107 105 103 101 99 97 95 93 91 89 87 85 83 81 79 77 75 74 72 70 68 66 65 63 62 60 59 57 56 54 53 51 50 48 47 46 45 44 42 41 40 39 38 37 36 35 34 33 32 31 30 29 28 28 27 26 26 25 24 24 24 24 24 24 24 24 24 24 25 26 26 27 28 28 29 30 31 32 33 34 35 36 37 38 39 40 41 42 44 
128 126 124 122 120 118 116 114 112 110 108 106 104 102 100 98 96 94 92 90 88 86 84 82 80 78 76 74 72 71 69 67 65 63 62 60 59 57 56 54 53 51 50 48 47 45 44 43 42 41 39 38 37 36 35 34 33 32 31 30 29 28 27 26 26 25 24 24 23 22 22 22 22 22 22 22 22 22 22 23 24 24 25 26 26 27 28 29 30 31 32 33 34 35 36 37 38 39 41 42 
127 125 123 121 119 117 115 113 111 109 107 105 103 101 99 97 95 93 91 89 87 85 83 81 79 77 75 73 71 69 68 66 64 62 60 59 57 56 54 53 51 50 48 47 45 44 42 41 40 39 38 36 35 34 33 32 31 30 29 28 27 26 25 24 24 23 22 22 21 20 20 20 20 20 20 20 20 20 20 21 22 22 23 24 24 25 26 27 28 29 30 31 32 33 34 35 36 38 39 40 
126 124 122 120 118 116 114 112 110 108 106 104 102 100 98 96 94 92 90 88 86 84 82 80 78 76 74 72 70 68 66 65 63 61 59 57 56 54 53 51 50 48 47 45 44 42 41 39 38 37 36 35 33 32 31 30 29 28 27 26 25 24 23 22 22 21 20 20 19 18 18 18 18 18 18 18 18 18 18 19 20 20 21 22 22 23 24 25 26 27 28 29 30 31 32 33 35 36 37 38 
125 123 121 119 117 115 113 111 109 107 105 103 101 99 97 95 93 91 89 87 85 83 81 79 77 75 73 71 69 67 65 63 62 60 58 56 54 53 51 50 48 47 45 44 42 41 39 38 36 35 34 33 32 30 29 28 27 26 25 24 23 22 21 20 20 19 18 18 17 16 16 16 16 16 16 16 16 16 16 17 18 18 19 20 20 21 22 23 24 25 26 27 28 29 30 32 33 34 35 36 
124 122 120 118 116 114 112 110 108 106 104 102 100 98 96 94 92 90 88 86 84 82 80 78 76 74 72 70 68 66 64 62 60 59 57 55 53 51 50 48 47 45 44 42 41 39 38 36 35 33 32 31 30 29 27 26 25 24 23 22 21 20 19 18 18 17 16 16 15 14 14 14 14 14 14 14 14 14 14 15 16 16 17 18 18 19 20 21 22 23 24 25 26 27 29 30 31 32 33 35 
123 121 119 117 115 113 111 109 107 105 103 101 99 97 95 93 91 89 87 85 83 81 79 77 75 73 71 69 67 65 63 61 59 57 56 54 52 50 48 47 45 44 42 41 39 38 36 35 33 32 30 29 28 27 26 24 23 22 21 20 19 18 17 16 16 15 14 14 13 12 12 12 12 12 12 12 12 12 12 13 14 14 15 16 16 17 18 19 20 21 22 23 24 26 27 28 29 30 32 33 
122 120 118 116 114 112 110 108 106 104 102 100 98 96 94 92 90 88 86 84 82 80 78 76 74 72 70 68 66 64 62 60 58 56 54 53 51 49 47 45 44 42 41 39 38 36 35 33 32 30 29 27 26 25 24 23 21 20 19 18 17 16 15 14 14 13 12 12 11 10 10 10 10 10 10 10 10 10 10 11 12 12 13 14 14 15 16 17 18 19 20 21 23 24 25 26 27 29 30 32 
121 119 117 115 113 111 109 107 105 103 101 99 97 95 93 91 89 87 85 83 81 79 77 75 73 71 69 67 65 63 61 59 57 55 53 51 50 48 46 44 42 41 39 38 36 35 33 32 30 29 27 26 24 23 22 21 20 18 17 16 15 14 13 12 12 11 10 10 9 8 8 8 8 8 8 8 8 8 8 9 10 10 11 12 12 13 14 15 16 17 18 20 21 22 23 24 26 27 29 30 
120 118 116 114 112 110 108 106 104 102 100 98 96 94 92 90 88 86 84 82 80 78 76 74 72 70 68 66 64 62 60 58 56 54 52 50 48 47 45 43 41 39 38 36 35 33 32 30 29 27 26 24 23 21 20 19 18 17 15 14 13 12 11 10 10 9 8 8 7 6 6 6 6 6 6 6 6 6 6 7 8 8 9 10 10 11 12 13 14 15 17 18 19 20 21 23 24 26 27 29 
119 117 115 113 111 109 107 105 103 101 99 97 95 93 91 89 87 85 83 81 79 77 75 73 71 69 67 65 63 61 59 57 55 53 51 49 47 45 44 42 40 38 36 35 33 32 30 29 27 26 24 23 21 20 18 17 16 15 14 12 11 10 9 8 8 7 6 6 5 4 4 4 4 4 4 4 4 4 4 5 6 6 7 8 8 9 10 11 12 14 15 16 17 18 20 21 23 24 26 27 
118 116 114 112 110 108 106 104 102 100 98 96 94 92 90 88 86 84 82 80 78 76 74 72 70 68 66 64 62 60 58 56 54 52 50 48 46 44 42 41 39 37 35 33 32 30 29 27 26 24 23 21 20 18 17 15 14 13 12 11 9 8 7 6 6 5 4 4 3 2 2 2 2 2 2 2 2 2 2 3 4 4 5 6 6 7 8 9 11 12 13 14 15 17 18 20 21 23 24 26 
117 115 113 111 109 107 105 103 101 99 97 95 93 91 89 87 85 83 81 79 77 75 73 71 69 67 65 63 61 59 57 55 53 51 49 47 45 43 41 39 38 36 34 32 30 29 27 26 24 23 21 20 18 17 15 14 12 11 10 9 8 6 5 4 4 3 2 2 2 0 0 0 0 0 0 0 0 0 0 2 2 2 3 4 4 5 6 8 9 10 11 12 14 15 17 18 20 21 23 24 
116 114 112 110 108 106 104 102 100 98 96 94 92 90 88 86 84 82 80 78 76 74 72 70 68 66 64 62 60 58 56 54 52 50 48 46 44 42 40 38 36 35 33 31 29 27 26 24 23 21 20 18 17 15 14 12 11 9 8 7 6 5 3 2 2 2 0 0 0 0 0 0 0 0 0 0 0 0 0 0 0 0 2 2 2 3 5 6 7 8 9 11 12 14 15 17 18 20 21 23 
115 113 111 109 107 105 103 101 99 97 95 93 91 89 87 85 83 81 79 77 75 73 71 69 67 65 63 61 59 57 55 53 51 49 47 45 43 41 39 37 35 33 32 30 28 26 24 23 21 20 18 17 15 14 12 11 9 8 6 5 4 3 2 0 0 0 0 0 0 0 0 0 0 0 0 0 0 0 0 0 0 0 0 0 0 2 3 4 5 6 8 9 11 12 14 15 17 18 20 21 
114 112 110 108 106 104 102 100 98 96 94 92 90 88 86 84 82 80 78 76 74 72 70 68 66 64 62 60 58 56 54 52 50 48 46 44 42 40 38 36 34 32 30 29 27 25 23 21 20 18 17 15 14 12 11 9 8 6 5 3 2 2 0 0 0 0 0 0 0 0 0 0 0 0 0 0 0 0 0 0 0 0 0 0 0 0 2 2 3 5 6 8 9 11 12 14 15 17 18 20 
113 111 109 107 105 103 101 99 97 95 93 91 89 87 85 83 81 79 77 75 73 71 69 67 65 63 61 59 57 55 53 51 49 47 45 43 41 39 37 35 33 31 29 27 26 24 22 20 18 17 15 14 12 11 9 8 6 5 3 2 0 0 0 0 0 0 0 0 0 0 0 0 0 0 0 0 0 0 0 0 0 0 0 0 0 0 0 0 2 3 5 6 8 9 11 12 14 15 17 18 
112 110 108 106 104 102 100 98 96 94 92 90 88 86 84 82 80 78 76 74 72 70 68 66 64 62 60 58 56 54 52 50 48 46 44 42 40 38 36 34 32 30 28 26 24 23 21 19 17 15 14 12 11 9 8 6 5 3 2 0 0 0 0 0 0 0 0 0 0 0 0 0 0 0 0 0 0 0 0 0 0 0 0 0 0 0 0 0 0 2 3 5 6 8 9 11 12 14 15 17 
111 109 107 105 103 101 99 97 95 93 91 89 87 85 83 81 79 77 75 73 71 69 67 65 63 61 59 57 55 53 51 49 47 45 43 41 39 37 35 33 31 29 27 25 23 21 20 18 16 14 12 11 9 8 6 5 3 2 0 0 0 0 0 0 0 0 0 0 0 0 0 0 0 0 0 0 0 0 0 0 0 0 0 0 0 0 0 0 0 0 2 3 5 6 8 9 11 12 14 16 
110 108 106 104 102 100 98 96 94 92 90 88 86 84 82 80 78 76 74 72 70 68 66 64 62 60 58 56 54 52 50 48 46 44 42 40 38 36 34 32 30 28 26 24 22 20 18 17 15 13 11 9 8 6 5 3 2 0 0 0 0 0 0 0 0 0 0 0 0 0 0 0 0 0 0 0 0 0 0 0 0 0 0 0 0 0 0 0 0 0 0 2 3 5 6 8 9 11 13 15 
109 107 105 103 101 99 97 95 93 91 89 87 85 83 81 79 77 75 73 71 69 67 65 63 61 59 57 55 53 51 49 47 45 43 41 39 37 35 33 31 29 27 25 23 21 19 17 15 14 12 10 8 6 5 3 2 0 0 0 0 0 0 0 0 0 0 0 0 0 0 0 0 0 0 0 0 0 0 0 0 0 0 0 0 0 0 0 0 0 0 0 0 2 3 5 6 8 10 12 14 
108 106 104 102 100 98 96 94 92 90 88 86 84 82 80 78 76 74 72 70 68 66 64 62 60 58 56 54 52 50 48 46 44 42 40 38 36 34 32 30 28 26 24 22 20 18 16 14 12 11 9 7 5 3 2 0 0 0 0 0 0 0 0 0 0 0 0 0 0 0 0 0 0 0 0 0 0 0 0 0 0 0 0 0 0 0 0 0 0 0 0 0 0 2 3 5 7 9 11 12 
107 105 103 101 99 97 95 93 91 89 87 85 83 81 79 77 75 73 71 69 67 65 63 61 59 57 55 53 51 49 47 45 43 41 39 37 35 33 31 29 27 25 23 21 19 17 15 13 11 9 8 6 4 2 0 0 0 0 0 0 0 0 0 0 0 0 0 0 0 0 0 0 0 0 0 0 0 0 0 0 0 0 0 0 0 0 0 0 0 0 0 0 0 0 2 4 6 8 9 11 
106 104 102 100 98 96 94 92 90 88 86 84 82 80 78 76 74 72 70 68 66 64 62 60 58 56 54 52 50 48 46 44 42 40 38 36 34 32 30 28 26 24 22 20 18 16 14 12 10 8 6 5 3 2 0 0 0 0 0 0 0 0 0 0 0 0 0 0 0 0 0 0 0 0 0 0 0 0 0 0 0 0 0 0 0 0 0 0 0 0 0 0 0 0 2 3 5 6 8 10 
105 103 101 99 97 95 93 91 89 87 85 83 81 79 77 75 73 71 69 67 65 63 61 59 57 55 53 51 49 47 45 43 41 39 37 35 33 31 29 27 25 23 21 19 17 15 13 11 9 7 5 3 2 0 0 0 0 0 0 0 0 0 0 0 0 0 0 0 0 0 0 0 0 0 0 0 0 0 0 0 0 0 0 0 0 0 0 0 0 0 0 0 0 0 0 2 3 5 7 9 
104 102 100 98 96 94 92 90 88 86 84 82 80 78 76 74 72 70 68 66 64 62 60 58 56 54 52 50 48 46 44 42 40 38 36 34 32 30 28 26 24 22 20 18 16 14 12 10 8 6 4 2 0 0 0 0 0 0 0 0 0 0 0 0 0 0 0 0 0 0 0 0 0 0 0 0 0 0 0 0 0 0 0 0 0 0 0 0 0 0 0 0 0 0 0 0 2 4 6 8 
104 102 100 98 96 94 92 90 88 86 84 82 80 78 76 74 72 70 68 66 64 62 60 58 56 54 52 50 48 46 44 42 40 38 36 34 32 30 28 26 24 22 20 18 16 14 12 10 8 6 4 2 0 0 0 0 0 0 0 0 0 0 0 0 0 0 0 0 0 0 0 0 0 0 0 0 0 0 0 0 0 0 0 0 0 0 0 0 0 0 0 0 0 0 0 0 2 4 6 8 
103 101 99 97 95 93 91 89 87 85 83 81 79 77 75 73 71 69 67 65 63 61 59 57 55 53 51 49 47 45 43 41 39 37 35 33 31 29 27 25 23 21 19 17 15 13 11 9 7 5 3 2 0 0 0 0 0 0 0 0 0 0 0 0 0 0 0 0 0 0 0 0 0 0 0 0 0 0 0 0 0 0 0 0 0 0 0 0 0 0 0 0 0 0 0 0 2 3 5 7 
102 100 98 96 94 92 90 88 86 84 82 80 78 76 74 72 70 68 66 64 62 60 58 56 54 52 50 48 46 44 42 40 38 36 34 32 30 28 26 24 22 20 18 16 14 12 10 8 6 4 2 0 0 0 0 0 0 0 0 0 0 0 0 0 0 0 0 0 0 0 0 0 0 0 0 0 0 0 0 0 0 0 0 0 0 0 0 0 0 0 0 0 0 0 0 0 0 2 4 6 
102 100 98 96 94 92 90 88 86 84 82 80 78 76 74 72 70 68 66 64 62 60 58 56 54 52 50 48 46 44 42 40 38 36 34 32 30 28 26 24 22 20 18 16 14 12 10 8 6 4 2 0 0 0 0 0 0 0 0 0 0 0 0 0 0 0 0 0 0 0 0 0 0 0 0 0 0 0 0 0 0 0 0 0 0 0 0 0 0 0 0 0 0 0 0 0 0 2 4 6 
101 99 97 95 93 91 89 87 85 83 81 79 77 75 73 71 69 67 65 63 61 59 57 55 53 51 49 47 45 43 41 39 37 35 33 31 29 27 25 23 21 19 17 15 13 11 9 7 5 3 2 0 0 0 0 0 0 0 0 0 0 0 0 0 0 0 0 0 0 0 0 0 0 0 0 0 0 0 0 0 0 0 0 0 0 0 0 0 0 0 0 0 0 0 0 0 0 2 3 5 
100 98 96 94 92 90 88 86 84 82 80 78 76 74 72 70 68 66 64 62 60 58 56 54 52 50 48 46 44 42 40 38 36 34 32 30 28 26 24 22 20 18 16 14 12 10 8 6 4 2 0 0 0 0 0 0 0 0 0 0 0 0 0 0 0 0 0 0 0 0 0 0 0 0 0 0 0 0 0 0 0 0 0 0 0 0 0 0 0 0 0 0 0 0 0 0 0 0 2 4 
100 98 96 94 92 90 88 86 84 82 80 78 76 74 72 70 68 66 64 62 60 58 56 54 52 50 48 46 44 42 40 38 36 34 32 30 28 26 24 22 20 18 16 14 12 10 8 6 4 2 0 0 0 0 0 0 0 0 0 0 0 0 0 0 0 0 0 0 0 0 0 0 0 0 0 0 0 0 0 0 0 0 0 0 0 0 0 0 0 0 0 0 0 0 0 0 0 0 2 4 
100 98 96 94 92 90 88 86 84 82 80 78 76 74 72 70 68 66 64 62 60 58 56 54 52 50 48 46 44 42 40 38 36 34 32 30 28 26 24 22 20 18 16 14 12 10 8 6 4 2 0 0 0 0 0 0 0 0 0 0 0 0 0 0 0 0 0 0 0 0 0 0 0 0 0 0 0 0 0 0 0 0 0 0 0 0 0 0 0 0 0 0 0 0 0 0 0 0 2 4 
100 98 96 94 92 90 88 86 84 82 80 78 76 74 72 70 68 66 64 62 60 58 56 54 52 50 48 46 44 42 40 38 36 34 32 30 28 26 24 22 20 18 16 14 12 10 8 6 4 2 0 0 0 0 0 0 0 0 0 0 0 0 0 0 0 0 0 0 0 0 0 0 0 0 0 0 0 0 0 0 0 0 0 0 0 0 0 0 0 0 0 0 0 0 0 0 0 0 2 4 
100 98 96 94 92 90 88 86 84 82 80 78 76 74 72 70 68 66 64 62 60 58 56 54 52 50 48 46 44 42 40 38 36 34 32 30 28 26 24 22 20 18 16 14 12 10 8 6 4 2 0 0 0 0 0 0 0 0 0 0 0 0 0 0 0 0 0 0 0 0 0 0 0 0 0 0 0 0 0 0 0 0 0 0 0 0 0 0 0 0 0 0 0 0 0 0 0 0 2 4 
100 98 96 94 92 90 88 86 84 82 80 78 76 74 72 70 68 66 64 62 60 58 56 54 52 50 48 46 44 42 40 38 36 34 32 30 28 26 24 22 20 18 16 14 12 10 8 6 4 2 0 0 0 0 0 0 0 0 0 0 0 0 0 0 0 0 0 0 0 0 0 0 0 0 0 0 0 0 0 0 0 0 0 0 0 0 0 0 0 0 0 0 0 0 0 0 0 0 2 4 
100 98 96 94 92 90 88 86 84 82 80 78 76 74 72 70 68 66 64 62 60 58 56 54 52 50 48 46 44 42 40 38 36 34 32 30 28 26 24 22 20 18 16 14 12 10 8 6 4 2 0 0 0 0 0 0 0 0 0 0 0 0 0 0 0 0 0 0 0 0 0 0 0 0 0 0 0 0 0 0 0 0 0 0 0 0 0 0 0 0 0 0 0 0 0 0 0 0 2 4 
100 98 96 94 92 90 88 86 84 82 80 78 76 74 72 70 68 66 64 62 60 58 56 54 52 50 48 46 44 42 40 38 36 34 32 30 28 26 24 22 20 18 16 14 12 10 8 6 4 2 0 0 0 0 0 0 0 0 0 0 0 0 0 0 0 0 0 0 0 0 0 0 0 0 0 0 0 0 0 0 0 0 0 0 0 0 0 0 0 0 0 0 0 0 0 0 0 0 2 4 
100 98 96 94 92 90 88 86 84 82 80 78 76 74 72 70 68 66 64 62 60 58 56 54 52 50 48 46 44 42 40 38 36 34 32 30 28 26 24 22 20 18 16 14 12 10 8 6 4 2 0 0 0 0 0 0 0 0 0 0 0 0 0 0 0 0 0 0 0 0 0 0 0 0 0 0 0 0 0 0 0 0 0 0 0 0 0 0 0 0 0 0 0 0 0 0 0 0 2 4 
100 98 96 94 92 90 88 86 84 82 80 78 76 74 72 70 68 66 64 62 60 58 56 54 52 50 48 46 44 42 40 38 36 34 32 30 28 26 24 22 20 18 16 14 12 10 8 6 4 2 0 0 0 0 0 0 0 0 0 0 0 0 0 0 0 0 0 0 0 0 0 0 0 0 0 0 0 0 0 0 0 0 0 0 0 0 0 0 0 0 0 0 0 0 0 0 0 0 2 4 
101 99 97 95 93 91 89 87 85 83 81 79 77 75 73 71 69 67 65 63 61 59 57 55 53 51 49 47 45 43 41 39 37 35 33 31 29 27 25 23 21 19 17 15 13 11 9 7 5 3 2 0 0 0 0 0 0 0 0 0 0 0 0 0 0 0 0 0 0 0 0 0 0 0 0 0 0 0 0 0 0 0 0 0 0 0 0 0 0 0 0 0 0 0 0 0 0 2 3 5 
102 100 98 96 94 92 90 88 86 84 82 80 78 76 74 72 70 68 66 64 62 60 58 56 54 52 50 48 46 44 42 40 38 36 34 32 30 28 26 24 22 20 18 16 14 12 10 8 6 4 2 0 0 0 0 0 0 0 0 0 0 0 0 0 0 0 0 0 0 0 0 0 0 0 0 0 0 0 0 0 0 0 0 0 0 0 0 0 0 0 0 0 0 0 0 0 0 2 4 6 
102 100 98 96 94 92 90 88 86 84 82 80 78 76 74 72 70 68 66 64 62 60 58 56 54 52 50 48 46 44 42 40 38 36 34 32 30 28 26 24 22 20 18 16 14 12 10 8 6 4 2 0 0 0 0 0 0 0 0 0 0 0 0 0 0 0 0 0 0 0 0 0 0 0 0 0 0 0 0 0 0 0 0 0 0 0 0 0 0 0 0 0 0 0 0 0 0 2 4 6 
103 101 99 97 95 93 91 89 87 85 83 81 79 77 75 73 71 69 67 65 63 61 59 57 55 53 51 49 47 45 43 41 39 37 35 33 31 29 27 25 23 21 19 17 15 13 11 9 7 5 3 2 0 0 0 0 0 0 0 0 0 0 0 0 0 0 0 0 0 0 0 0 0 0 0 0 0 0 0 0 0 0 0 0 0 0 0 0 0 0 0 0 0 0 0 0 2 3 5 7 
104 102 100 98 96 94 92 90 88 86 84 82 80 78 76 74 72 70 68 66 64 62 60 58 56 54 52 50 48 46 44 42 40 38 36 34 32 30 28 26 24 22 20 18 16 14 12 10 8 6 4 2 0 0 0 0 0 0 0 0 0 0 0 0 0 0 0 0 0 0 0 0 0 0 0 0 0 0 0 0 0 0 0 0 0 0 0 0 0 0 0 0 0 0 0 0 2 4 6 8 
104 102 100 98 96 94 92 90 88 86 84 82 80 78 76 74 72 70 68 66 64 62 60 58 56 54 52 50 48 46 44 42 40 38 36 34 32 30 28 26 24 22 20 18 16 14 12 10 8 6 4 2 0 0 0 0 0 0 0 0 0 0 0 0 0 0 0 0 0 0 0 0 0 0 0 0 0 0 0 0 0 0 0 0 0 0 0 0 0 0 0 0 0 0 0 0 2 4 6 8 
105 103 101 99 97 95 93 91 89 87 85 83 81 79 77 75 73 71 69 67 65 63 61 59 57 55 53 51 49 47 45 43 41 39 37 35 33 31 29 27 25 23 21 19 17 15 13 11 9 7 5 3 2 0 0 0 0 0 0 0 0 0 0 0 0 0 0 0 0 0 0 0 0 0 0 0 0 0 0 0 0 0 0 0 0 0 0 0 0 0 0 0 0 0 0 2 3 5 7 9 
106 104 102 100 98 96 94 92 90 88 86 84 82 80 78 76 74 72 70 68 66 64 62 60 58 56 54 52 50 48 46 44 42 40 38 36 34 32 30 28 26 24 22 20 18 16 14 12 10 8 6 5 3 2 0 0 0 0 0 0 0 0 0 0 0 0 0 0 0 0 0 0 0 0 0 0 0 0 0 0 0 0 0 0 0 0 0 0 0 0 0 0 0 0 2 3 5 6 8 10 
107 105 103 101 99 97 95 93 91 89 87 85 83 81 79 77 75 73 71 69 67 65 63 61 59 57 55 53 51 49 47 45 43 41 39 37 35 33 31 29 27 25 23 21 19 17 15 13 11 9 8 6 4 2 0 0 0 0 0 0 0 0 0 0 0 0 0 0 0 0 0 0 0 0 0 0 0 0 0 0 0 0 0 0 0 0 0 0 0 0 0 0 0 0 2 4 6 8 9 11 
108 106 104 102 100 98 96 94 92 90 88 86 84 82 80 78 76 74 72 70 68 66 64 62 60 58 56 54 52 50 48 46 44 42 40 38 36 34 32 30 28 26 24 22 20 18 16 14 12 11 9 7 5 3 2 0 0 0 0 0 0 0 0 0 0 0 0 0 0 0 0 0 0 0 0 0 0 0 0 0 0 0 0 0 0 0 0 0 0 0 0 0 0 2 3 5 7 9 11 12 
109 107 105 103 101 99 97 95 93 91 89 87 85 83 81 79 77 75 73 71 69 67 65 63 61 59 57 55 53 51 49 47 45 43 41 39 37 35 33 31 29 27 25 23 21 19 17 15 14 12 10 8 6 5 3 2 0 0 0 0 0 0 0 0 0 0 0 0 0 0 0 0 0 0 0 0 0 0 0 0 0 0 0 0 0 0 0 0 0 0 0 0 2 3 5 6 8 10 12 14 
110 108 106 104 102 100 98 96 94 92 90 88 86 84 82 80 78 76 74 72 70 68 66 64 62 60 58 56 54 52 50 48 46 44 42 40 38 36 34 32 30 28 26 24 22 20 18 17 15 13 11 9 8 6 5 3 2 0 0 0 0 0 0 0 0 0 0 0 0 0 0 0 0 0 0 0 0 0 0 0 0 0 0 0 0 0 0 0 0 0 0 2 3 5 6 8 9 11 13 15 
111 109 107 105 103 101 99 97 95 93 91 89 87 85 83 81 79 77 75 73 71 69 67 65 63 61 59 57 55 53 51 49 47 45 43 41 39 37 35 33 31 29 27 25 23 21 20 18 16 14 12 11 9 8 6 5 3 2 0 0 0 0 0 0 0 0 0 0 0 0 0 0 0 0 0 0 0 0 0 0 0 0 0 0 0 0 0 0 0 0 2 3 5 6 8 9 11 12 14 16 
112 110 108 106 104 102 100 98 96 94 92 90 88 86 84 82 80 78 76 74 72 70 68 66 64 62 60 58 56 54 52 50 48 46 44 42 40 38 36 34 32 30 28 26 24 23 21 19 17 15 14 12 11 9 8 6 5 3 2 0 0 0 0 0 0 0 0 0 0 0 0 0 0 0 0 0 0 0 0 0 0 0 0 0 0 0 0 0 0 2 3 5 6 8 9 11 12 14 15 17 
113 111 109 107 105 103 101 99 97 95 93 91 89 87 85 83 81 79 77 75 73 71 69 67 65 63 61 59 57 55 53 51 49 47 45 43 41 39 37 35 33 31 29 27 26 24 22 20 18 17 15 14 12 11 9 8 6 5 3 2 0 0 0 0 0 0 0 0 0 0 0 0 0 0 0 0 0 0 0 0 0 0 0 0 0 0 0 0 2 3 5 6 8 9 11 12 14 15 17 18 
114 112 110 108 106 104 102 100 98 96 94 92 90 88 86 84 82 80 78 76 74 72 70 68 66 64 62 60 58 56 54 52 50 48 46 44 42 40 38 36 34 32 30 29 27 25 23 21 20 18 17 15 14 12 11 9 8 6 5 3 2 2 0 0 0 0 0 0 0 0 0 0 0 0 0 0 0 0 0 0 0 0 0 0 0 0 2 2 3 5 6 8 9 11 12 14 15 17 18 20 
115 113 111 109 107 105 103 101 99 97 95 93 91 89 87 85 83 81 79 77 75 73 71 69 67 65 63 61 59 57 55 53 51 49 47 45 43 41 39 37 35 33 32 30 28 26 24 23 21 20 18 17 15 14 12 11 9 8 6 5 4 3 2 0 0 0 0 0 0 0 0 0 0 0 0 0 0 0 0 0 0 0 0 0 0 2 3 4 5 6 8 9 11 12 14 15 17 18 20 21 
116 114 112 110 108 106 104 102 100 98 96 94 92 90 88 86 84 82 80 78 76 74 72 70 68 66 64 62 60 58 56 54 52 50 48 46 44 42 40 38 36 35 33 31 29 27 26 24 23 21 20 18 17 15 14 12 11 9 8 7 6 5 3 2 2 2 0 0 0 0 0 0 0 0 0 0 0 0 0 0 0 0 2 2 2 3 5 6 7 8 9 11 12 14 15 17 18 20 21 23 
117 115 113 111 109 107 105 103 101 99 97 95 93 91 89 87 85 83 81 79 77 75 73 71 69 67 65 63 61 59 57 55 53 51 49 47 45 43 41 39 38 36 34 32 30 29 27 26 24 23 21 20 18 17 15 14 12 11 10 9 8 6 5 4 4 3 2 2 2 0 0 0 0 0 0 0 0 0 0 2 2 2 3 4 4 5 6 8 9 10 11 12 14 15 17 18 20 21 23 24 
118 116 114 112 110 108 106 104 102 100 98 96 94 92 90 88 86 84 82 80 78 76 74 72 70 68 66 64 62 60 58 56 54 52 50 48 46 44 42 41 39 37 35 33 32 30 29 27 26 24 23 21 20 18 17 15 14 13 12 11 9 8 7 6 6 5 4 4 3 2 2 2 2 2 2 2 2 2 2 3 4 4 5 6 6 7 8 9 11 12 13 14 15 17 18 20 21 23 24 26 
